# xmcd CD database file
#
# Track frame offsets:
#	150
#	17672
#	31403
#	40096
#	52809
#	63482
#	73896
#	85214
#	99638
#	108852
#	119521
#	133484
#	154623
#	173293
#	186038
#	204850
#	221005
#	234737
#	250214
#	263075
#	273653
#
# Disc length: 3793 seconds
#
# Revision: 0
# Processed by: cddbd v1.5.2PL0 Copyright (c) Steve Scherf et al.
# Submitted via: CDex 1.79
#
DISCID=280ecf15
DTITLE=Bunny Berigan - That's a Plenty 1936-39
DYEAR=1900
DGENRE=Jazz
TTITLE0=Louisiana
TTITLE1=It's Wonderful
TTITLE2=Hold Tight
TTITLE3='Cause My Baby Say It's So
TTITLE4=Swanee River
TTITLE5=The First Time I Saw You
TTITLE6=Mahogany Hall Stomp
TTITLE7=Roses In December
TTITLE8=That's A Plenty
TTITLE9=I Never Knew
TTITLE10=Ebb Tide
TTITLE11=I Can't Get Started
TTITLE12=The Prisoner's Song
TTITLE13=Why Talk About Love
TTITLE14=Stardust
TTITLE15=Shanghai Shuffle
TTITLE16=Whistle While You Work
TTITLE17=I'll Always Be In Love With You
TTITLE18=Black Bottom
TTITLE19=Sunday
TTITLE20=Sing You Singers
EXTD=
EXTT0=
EXTT1=
EXTT2=
EXTT3=
EXTT4=
EXTT5=
EXTT6=
EXTT7=
EXTT8=
EXTT9=
EXTT10=
EXTT11=
EXTT12=
EXTT13=
EXTT14=
EXTT15=
EXTT16=
EXTT17=
EXTT18=
EXTT19=
EXTT20=
PLAYORDER=
